HIERARCHY
ROOT Hips
{
	OFFSET 0.000000 0.000000 0.000000
	CHANNELS 6 Xposition Yposition Zposition Zrotation Yrotation Xrotation 
	JOINT LHipJoint
	{
		OFFSET 0.000000 0.000000 0.000000
		CHANNELS 3 Zrotation Yrotation Xrotation
		JOINT LeftUpLeg
		{
			OFFSET 8.178360 -10.767780 5.035740
			CHANNELS 3 Zrotation Yrotation Xrotation
			JOINT LeftLeg
			{
				OFFSET 14.688660 -40.356780 0.000000
				CHANNELS 3 Zrotation Yrotation Xrotation
				JOINT LeftFoot
				{
					OFFSET 15.373200 -42.237540 0.000000
					CHANNELS 3 Zrotation Yrotation Xrotation
					JOINT LeftToeBase
					{
						OFFSET 0.945840 -2.598660 13.935300
						CHANNELS 3 Zrotation Yrotation Xrotation
						End Site
						{
							OFFSET 0.000000 0.000000 0.000000
						}
					}
				}
			}
		}
	}
	JOINT RHipJoint
	{
		OFFSET 0.000000 0.000000 0.000000
		CHANNELS 3 Zrotation Yrotation Xrotation
		JOINT RightUpLeg
		{
			OFFSET -7.833120 -10.767780 5.035740
			CHANNELS 3 Zrotation Yrotation Xrotation
			JOINT RightLeg
			{
				OFFSET -15.255180 -41.913300 0.000000
				CHANNELS 3 Zrotation Yrotation Xrotation
				JOINT RightFoot
				{
					OFFSET -15.409560 -42.337380 0.000000
					CHANNELS 3 Zrotation Yrotation Xrotation
					JOINT RightToeBase
					{
						OFFSET -0.988380 -2.715540 14.178900
						CHANNELS 3 Zrotation Yrotation Xrotation
						End Site
						{
							OFFSET 0.000000 0.000000 0.000000
						}
					}
				}
			}
		}
	}
	JOINT LowerBack
	{
		OFFSET 0.000000 0.000000 0.000000
		CHANNELS 3 Zrotation Yrotation Xrotation
		JOINT Spine
		{
			OFFSET 0.169620 12.213540 -1.160280
			CHANNELS 3 Zrotation Yrotation Xrotation
			JOINT Spine1
			{
				OFFSET 0.340320 12.293100 -0.256500
				CHANNELS 3 Zrotation Yrotation Xrotation
				JOINT Neck
				{
					OFFSET 0.000000 0.000000 0.000000
					CHANNELS 3 Zrotation Yrotation Xrotation
					JOINT Neck1
					{
						OFFSET -0.325020 10.477440 1.032120
						CHANNELS 3 Zrotation Yrotation Xrotation
						JOINT Head
						{
							OFFSET 0.624420 10.568160 -0.743820
							CHANNELS 3 Zrotation Yrotation Xrotation
							End Site
							{
								OFFSET 0.000000 0.000000 0.000000
							}
						}
					}
				}
				JOINT LeftShoulder
				{
					OFFSET 0.000000 0.000000 0.000000
					CHANNELS 3 Zrotation Yrotation Xrotation
					JOINT LeftArm
					{
						OFFSET 20.174460 7.205340 -1.867260
						CHANNELS 3 Zrotation Yrotation Xrotation
						JOINT LeftForeArm
						{
							OFFSET 29.898000 -0.000000 -0.000000
							CHANNELS 3 Zrotation Yrotation Xrotation
							JOINT LeftHand
							{
								OFFSET 20.901360 -0.000000 -0.000000
								CHANNELS 3 Zrotation Yrotation Xrotation
								JOINT LeftFingerBase
								{
									OFFSET 0.000000 0.000000 0.000000
									CHANNELS 3 Zrotation Yrotation Xrotation
									JOINT LeftHandIndex1
									{
										OFFSET 4.291560 -0.000000 -0.000000
										CHANNELS 3 Zrotation Yrotation Xrotation
										End Site
										{
											OFFSET 0.000000 0.000000 0.000000
										}
									}
								}
								JOINT LThumb
								{
									OFFSET 0.000000 0.000000 0.000000
									CHANNELS 3 Zrotation Yrotation Xrotation
									End Site
									{
										OFFSET 0.000000 0.000000 0.000000
									}
								}
							}
						}
					}
				}
				JOINT RightShoulder
				{
					OFFSET 0.000000 0.000000 0.000000
					CHANNELS 3 Zrotation Yrotation Xrotation
					JOINT RightArm
					{
						OFFSET -18.819600 8.244300 -2.427900
						CHANNELS 3 Zrotation Yrotation Xrotation
						JOINT RightForeArm
						{
							OFFSET -31.451400 -0.000000 -0.000000
							CHANNELS 3 Zrotation Yrotation Xrotation
							JOINT RightHand
							{
								OFFSET -20.665020 -0.000000 -0.000000
								CHANNELS 3 Zrotation Yrotation Xrotation
								JOINT RightFingerBase
								{
									OFFSET 0.000000 0.000000 0.000000
									CHANNELS 3 Zrotation Yrotation Xrotation
									JOINT RightHandIndex1
									{
										OFFSET -3.735180 -0.000000 -0.000000
										CHANNELS 3 Zrotation Yrotation Xrotation
										End Site
										{
											OFFSET 0.000000 0.000000 0.000000
										}
									}
								}
								JOINT RThumb
								{
									OFFSET 0.000000 0.000000 0.000000
									CHANNELS 3 Zrotation Yrotation Xrotation
									End Site
									{
										OFFSET 0.000000 0.000000 0.000000
									}
								}
							}
						}
					}
				}
			}
		}
	}
}
MOTION
Frames:	4
Frame Time:	0.0333333
2.335272 105.171960 -227.786022 0.529016 -2.682224 20.818149 -1.004853 0.059727 0.418476 -10.079086 -8.382731 -26.716325 5.290463 15.147800 46.105636 2.121319 -4.234676 1.890713 1.175800 -6.882400 -19.367400 0.565250 -1.214016 1.320267 21.016097 10.910603 -14.838980 -1.304114 -9.506453 28.715137 0.161923 -4.559210 -13.050554 -0.042100 1.324100 -3.640900 0.831906 -1.160402 2.011958 1.264720 -1.853362 -2.146183 3.604286 -0.489537 -1.445902 -9.750148 -0.981252 -4.989830 5.109152 -0.182770 4.495881 4.375400 -0.172900 3.646700 -7.184352 3.485995 -2.509024 -83.937075 5.846396 17.466061 14.586619 -27.213185 -5.419924 -0.988097 -3.671580 -2.625864 15.572693 16.657566 5.968400 -7.125000 0.000000 0.000000 -11.728200 50.727400 -1.675100 5.256005 -1.935493 -2.074798 80.377511 -2.383002 29.582124 -17.339027 26.598584 -6.127047 1.441518 -0.482169 0.797401 -15.741417 13.421347 -4.221000 7.125000 0.000000 0.000000 6.996400 -15.627600 4.890100 
2.025408 104.636286 -225.041154 1.105371 0.022556 19.934380 -0.410367 0.013427 0.098326 -9.469929 -10.306930 -29.667358 7.659085 17.116517 54.147364 2.100932 -5.752702 9.577234 0.733700 -5.472500 -15.261300 0.495811 -1.389928 1.582109 22.083982 8.464004 -11.517909 -0.915631 -8.669806 26.587374 0.602004 -5.977166 -13.902123 -0.078900 1.811500 -4.985000 1.609567 -1.650516 3.475866 1.296784 -2.416144 -1.821292 3.068048 -0.768687 -1.174845 -9.886617 -1.807612 -4.292825 5.175684 -1.301483 3.796705 4.434700 -0.684000 3.279300 -7.095723 3.544241 -2.436716 -83.667502 6.095331 18.122587 15.079954 -27.938682 -5.781249 -0.658346 -3.803698 -4.589577 14.298696 17.723340 5.722500 -7.125000 0.000000 0.000000 -13.615700 51.665600 -2.270200 5.004660 -1.858526 -1.959988 80.521074 -1.647870 31.013156 -18.954157 28.561709 -7.232472 1.165653 -0.016352 0.784235 -13.837672 10.108939 -2.680400 7.125000 0.000000 0.000000 8.526400 -19.629700 5.224200 
1.786422 103.987074 -222.345210 0.790365 -0.225230 20.153286 -0.038125 0.026357 0.158936 -8.593157 -9.888846 -35.819477 10.693874 19.083151 63.170866 1.757457 -5.252299 11.103923 0.337900 -3.735500 -10.333700 0.035983 -1.574279 1.957237 23.076573 7.863567 -9.353487 -0.562208 -7.773932 24.400503 0.652498 -5.897107 -13.126430 -0.124200 2.272300 -6.258700 -2.059378 -2.734777 8.745007 2.998824 -4.017954 -3.043467 11.961037 -0.978211 -7.389048 -14.367496 0.302554 -2.669942 4.011456 1.821838 4.331926 4.332800 0.546900 3.295800 -6.218650 3.410653 -2.958900 -91.671672 12.593540 12.283235 16.616013 -29.658162 -6.737834 -0.723541 -3.631372 -4.765987 14.643274 16.777524 5.586300 -7.125000 0.000000 0.000000 -12.777500 50.611200 -1.792100 5.215811 -1.513681 -2.234326 72.522828 -5.084342 42.120284 -21.955518 31.871423 -9.160768 1.624691 -0.385949 -8.016538 -15.899914 17.322182 -5.494100 7.125000 0.000000 0.000000 6.934800 -11.464100 5.459300 
1.742514 103.130874 -219.197640 -0.603534 -0.885455 21.620130 1.094357 -0.139677 -0.550571 -8.000634 -7.925276 -43.166739 13.692042 20.533556 71.591578 1.625077 -5.220164 5.976198 0.500100 -4.533800 -12.583600 0.238352 -1.665764 1.902799 23.921490 6.635747 -7.124311 0.013404 -6.611201 20.952401 0.194859 -4.294995 -11.824900 -0.190500 2.811200 -7.753400 3.939971 0.307301 4.106298 1.197332 0.257335 -1.371599 1.323601 0.631116 -0.139348 -8.663858 -2.826489 -4.673455 4.908253 -2.728443 2.011970 4.095200 -1.265700 2.676300 -6.583413 3.483855 -2.403541 -82.714947 6.829182 21.653659 16.717986 -30.205944 -6.949473 -0.547002 -3.742495 -6.325136 14.435695 17.160675 5.610500 -7.125000 0.000000 0.000000 -13.228700 51.052400 -2.002400 4.271036 -1.667962 -1.817391 81.178939 1.364760 33.951924 -25.492327 35.226237 -11.786316 1.174969 0.294511 -2.385018 -14.757063 9.777604 -2.692300 7.125000 0.000000 0.000000 7.868700 -20.177600 4.715800 
